<?xml version="1.0" encoding="utf-8"?>
<!-- Generator: Adobe Illustrator 21.1.0, SVG Export Plug-In . SVG Version: 6.00 Build 0)  -->
<svg version="1.1"
	 id="svg4744" inkscape:export-filename="pose.png" inkscape:export-xdpi="89.999596" inkscape:export-ydpi="89.999596" inkscape:version="0.48.4 r9939" sodipodi:docname="pose.svg" xmlns:cc="http://creativecommons.org/ns#" xmlns:dc="http://purl.org/dc/elements/1.1/" xmlns:inkscape="http://www.inkscape.org/namespaces/inkscape" xmlns:rdf="http://www.w3.org/1999/02/22-rdf-syntax-ns#" xmlns:sodipodi="http://sodipodi.sourceforge.net/DTD/sodipodi-0.dtd" xmlns:svg="http://www.w3.org/2000/svg"
	 xmlns="http://www.w3.org/2000/svg" xmlns:xlink="http://www.w3.org/1999/xlink" x="0px" y="0px" viewBox="0 0 24 24"
	 style="enable-background:new 0 0 24 24;" xml:space="preserve">
<style type="text/css">
	.st0{fill:none;}
	.st1{fill:none;stroke:#E20000;}
	.st2{fill:none;stroke:#E5E5E5;}
</style>
<g id="layer1" transform="translate(0,-1028.3622)" inkscape:groupmode="layer" inkscape:label="Layer 1">
	
		<path id="rect2996-9-2-7-9-4-68-54-7-3-1-0-9" inkscape:export-filename="pose.png" inkscape:export-xdpi="93.75" inkscape:export-ydpi="93.75" class="st0" d="
		M20.9,1027.9H4c-2.2,0-4,1.8-4,4v16.9c0,2.2,1.8,4,4,4h16.9c2.2,0,4-1.8,4-4v-16.9C25,1029.7,23.2,1027.9,20.9,1027.9z"/>
</g>
<sodipodi:namedview  bordercolor="#666666" borderopacity="1.0" fit-margin-bottom="0" fit-margin-left="0" fit-margin-right="0" fit-margin-top="0" id="base" inkscape:current-layer="layer1" inkscape:cx="15.601743" inkscape:cy="13.35661" inkscape:document-units="px" inkscape:pageopacity="0.0" inkscape:pageshadow="2" inkscape:window-height="721" inkscape:window-maximized="1" inkscape:window-width="1366" inkscape:window-x="-3" inkscape:window-y="-3" inkscape:zoom="18.295537" pagecolor="#ffffff" showgrid="false">
	</sodipodi:namedview>
<path class="st1" d="M21.5,12c0,0.9-1,1.8-1.3,2.7c-0.4,1.5-0.3,2.8-1.4,3.9c-0.8,0.9-2.3,1-3.4,1.5c-1.2,0.6-2,1.4-3.4,1.4
	c-1.6,0-3.1-1.4-4.5-2.1c-1.1-0.6-2.1-0.5-3-1.5C3.9,17,4.1,16,3.8,14.8C3.5,14,2.5,13,2.5,12c0-1.3,1-1.7,1.4-2.8
	c0.5-1.2,0.5-3.1,1.5-4c0.8-0.8,1.8-0.3,2.9-0.8C9.4,4,10.7,2.6,12,2.6c1.5,0,3,1.2,4.2,1.8c1.3,0.6,2.4,0.7,3.3,1.9
	c0.7,0.8,0.5,2.4,0.9,3.5C20.7,10.7,21.5,11,21.5,12z"/>
<ellipse class="st2" cx="12" cy="12.1" rx="2.6" ry="5.1"/>
</svg>
