<?xml version="1.0" encoding="utf-8"?>
<!-- Generator: Adobe Illustrator 21.1.0, SVG Export Plug-In . SVG Version: 6.00 Build 0)  -->
<svg version="1.1"
	 id="svg4744" inkscape:export-filename="pose.png" inkscape:export-xdpi="89.999596" inkscape:export-ydpi="89.999596" inkscape:version="0.48.4 r9939" sodipodi:docname="pose.svg" xmlns:cc="http://creativecommons.org/ns#" xmlns:dc="http://purl.org/dc/elements/1.1/" xmlns:inkscape="http://www.inkscape.org/namespaces/inkscape" xmlns:rdf="http://www.w3.org/1999/02/22-rdf-syntax-ns#" xmlns:sodipodi="http://sodipodi.sourceforge.net/DTD/sodipodi-0.dtd" xmlns:svg="http://www.w3.org/2000/svg"
	 xmlns="http://www.w3.org/2000/svg" xmlns:xlink="http://www.w3.org/1999/xlink" x="0px" y="0px" viewBox="0 0 24 24"
	 style="enable-background:new 0 0 24 24;" xml:space="preserve">
<style type="text/css">
	.st0{fill:none;}
	.st1{fill:none;stroke:#E20000;}
	.st2{fill:none;stroke:#E5E5E5;}
</style>
<g id="layer1" transform="translate(0,-1028.3622)" inkscape:groupmode="layer" inkscape:label="Layer 1">
	
		<path id="rect2996-9-2-7-9-4-68-54-7-3-1-0-9" inkscape:export-filename="pose.png" inkscape:export-xdpi="93.75" inkscape:export-ydpi="93.75" class="st0" d="
		M20.9,1027.9H4c-2.2,0-4,1.8-4,4v16.9c0,2.2,1.8,4,4,4h16.9c2.2,0,4-1.8,4-4v-16.9C25,1029.7,23.2,1027.9,20.9,1027.9z"/>
</g>
<sodipodi:namedview  bordercolor="#666666" borderopacity="1.0" fit-margin-bottom="0" fit-margin-left="0" fit-margin-right="0" fit-margin-top="0" id="base" inkscape:current-layer="layer1" inkscape:cx="15.601743" inkscape:cy="13.35661" inkscape:document-units="px" inkscape:pageopacity="0.0" inkscape:pageshadow="2" inkscape:window-height="721" inkscape:window-maximized="1" inkscape:window-width="1366" inkscape:window-x="-3" inkscape:window-y="-3" inkscape:zoom="18.295537" pagecolor="#ffffff" showgrid="false">
	</sodipodi:namedview>
<circle class="st1" cx="12" cy="12" r="10.2"/>
<path class="st2" d="M12,1.8c3,0,5.8,1.3,7.6,3.4C21.2,7,12,9.4,12,12c0,3.1,8.8,5.9,6.6,7.8c-1.8,1.5-4.1,2.4-6.6,2.4
	C6.4,22.2,1.8,17.6,1.8,12S6.4,1.8,12,1.8z"/>
</svg>
