<?xml version="1.0" encoding="utf-8"?>
<!-- Generator: Adobe Illustrator 21.1.0, SVG Export Plug-In . SVG Version: 6.00 Build 0)  -->
<svg version="1.1"
	 id="svg4744" inkscape:export-filename="pose.png" inkscape:export-xdpi="89.999596" inkscape:export-ydpi="89.999596" inkscape:version="0.48.4 r9939" sodipodi:docname="pose.svg" xmlns:cc="http://creativecommons.org/ns#" xmlns:dc="http://purl.org/dc/elements/1.1/" xmlns:inkscape="http://www.inkscape.org/namespaces/inkscape" xmlns:rdf="http://www.w3.org/1999/02/22-rdf-syntax-ns#" xmlns:sodipodi="http://sodipodi.sourceforge.net/DTD/sodipodi-0.dtd" xmlns:svg="http://www.w3.org/2000/svg"
	 xmlns="http://www.w3.org/2000/svg" xmlns:xlink="http://www.w3.org/1999/xlink" x="0px" y="0px" viewBox="0 0 24 24"
	 style="enable-background:new 0 0 24 24;" xml:space="preserve">
<style type="text/css">
	.st0{fill:url(#path4592-8-6_1_);stroke:#E5E5E5;stroke-width:0.5;}
	.st1{fill:url(#path4594-8-9_1_);stroke:#E5E5E5;stroke-width:0.5;stroke-linecap:round;stroke-linejoin:round;}
	.st2{fill:none;}
</style>
<sodipodi:namedview  bordercolor="#666666" borderopacity="1.0" fit-margin-bottom="0" fit-margin-left="0" fit-margin-right="0" fit-margin-top="0" id="base" inkscape:current-layer="layer1" inkscape:cx="15.601743" inkscape:cy="13.35661" inkscape:document-units="px" inkscape:pageopacity="0.0" inkscape:pageshadow="2" inkscape:window-height="721" inkscape:window-maximized="1" inkscape:window-width="1366" inkscape:window-x="-3" inkscape:window-y="-3" inkscape:zoom="18.295537" pagecolor="#ffffff" showgrid="false">
	</sodipodi:namedview>
<g id="layer1" transform="translate(0,-1028.3622)" inkscape:groupmode="layer" inkscape:label="Layer 1">
	
		<g id="g4338-9-4" transform="matrix(1.2754796,0,0,1.2754796,-835.34865,781.51991)" inkscape:export-filename="pose.png" inkscape:export-xdpi="93.75" inkscape:export-ydpi="93.75">
		<linearGradient id="path4592-8-6_1_" gradientUnits="userSpaceOnUse" x1="656.9262" y1="202.9372" x2="676.9684" y2="202.9372">
			<stop  offset="0" style="stop-color:#FFFFFF"/>
			<stop  offset="1" style="stop-color:#000000"/>
		</linearGradient>
		<path id="path4592-8-6" inkscape:connector-curvature="0" sodipodi:nodetypes="cccssssczccczcsssccsssccc" class="st0" d="
			M664,198.4c-0.3,0.2-0.6,1.4-1.4,0.7c-0.2-0.3-0.7-0.5-0.8-0.6c-0.1-0.1-0.4-0.3-0.7-0.5c-0.3-0.3,1.1-3,0.2-3.3
			c-0.9-0.3-2.2,3.5-1.7,4.1c0.4,0.6,2.1,1.7,2.3,2.3c0.2,0.7,0.9,2.4,0.9,3.1c-2.6-1.4-5-0.6-5.7,0.5c-0.7,1.1,0.7,3.8,0.9,4.1
			c-2.1,4.9,2.8,0.5,2.5-0.6c-0.3-1.1-1.2-0.8-1.3-2.4c1.5-0.8,4.6,0.8,5.1,0.9c0.5,0.1,0.3,0,1.2,0.4c1.5,0,3.1-0.5,2.4-0.1
			c-1.8,1-3.6,1.6-3.4,1.9c0.2,0.5,3.3,2.6,3.4,1.9c0.5-1.7-2-1.6,3.8-4.9c1.1-1.4-2.2-2.2-5.1-0.9c0.2-0.6-0.1-3.1,0.3-3.6
			c0.5-0.5,1.5,1,2.2,0.9c0.7-0.1,3.5-1.4,3.5-2c0.1-1.5-3,0.2-3.4,0.5c-0.9-0.5-1.7-1-2.6-1.1c-2.1,0.3-1.8-1.1-1.8-1.1"/>
		<linearGradient id="path4594-8-9_1_" gradientUnits="userSpaceOnUse" x1="663.7615" y1="197.7695" x2="666.6776" y2="197.7695">
			<stop  offset="0" style="stop-color:#FFFFFF"/>
			<stop  offset="1" style="stop-color:#000000"/>
		</linearGradient>
		
			<path id="path4594-8-9" sodipodi:cx="456.26987" sodipodi:cy="152.94838" sodipodi:rx="4.8508992" sodipodi:ry="7.0385599" sodipodi:type="arc" class="st1" d="
			M666,197.5c0.2,0.9-0.1,1.7-0.7,1.8c-0.6,0.1-1.2-0.5-1.4-1.3c-0.2-0.9,0.1-1.7,0.7-1.8C665.2,196.1,665.8,196.7,666,197.5z"/>
	</g>
	
		<path id="rect2996-9-2-7-9-4-68-54-7-3-1-0-9" inkscape:export-filename="pose.png" inkscape:export-xdpi="93.75" inkscape:export-ydpi="93.75" class="st2" d="
		M20.9,1027.9H4c-2.2,0-4,1.8-4,4v16.9c0,2.2,1.8,4,4,4h16.9c2.2,0,4-1.8,4-4v-16.9C25,1029.7,23.2,1027.9,20.9,1027.9z"/>
</g>
</svg>
