<?xml version="1.0" encoding="utf-8"?>
<!-- Generator: Adobe Illustrator 21.1.0, SVG Export Plug-In . SVG Version: 6.00 Build 0)  -->
<svg version="1.1" id="Layer_1" xmlns="http://www.w3.org/2000/svg" xmlns:xlink="http://www.w3.org/1999/xlink" x="0px" y="0px"
	 viewBox="0 0 24 24" style="enable-background:new 0 0 24 24;" xml:space="preserve">
<style type="text/css">
	.st0{fill:none;stroke:#B3B3B3;stroke-width:1.3505;}
	.st1{fill:none;}
	.st2{fill:url(#SVGID_1_);stroke:#B3B3B3;stroke-width:0.7328;}
</style>
<g transform="translate(0 -1028.3622)">
	<path class="st0" d="M5.6,1032.1h12.8c1.2,0,2.1,1,2.1,2.1v12.3c0,1.2-1,2.1-2.1,2.1H5.6c-1.2,0-2.1-1-2.1-2.1v-12.3
		C3.5,1033,4.4,1032.1,5.6,1032.1z"/>
	<path class="st1" d="M19.8,1028.8H4.2c-2.1,0-3.7,1.7-3.7,3.7v15.6c0,2.1,1.7,3.7,3.7,3.7h15.6c2.1,0,3.7-1.7,3.7-3.7v-15.6
		C23.5,1030.5,21.9,1028.8,19.8,1028.8z"/>
	<linearGradient id="SVGID_1_" gradientUnits="userSpaceOnUse" x1="6.3593" y1="1035.4518" x2="17.7552" y2="1035.4518">
		<stop  offset="0" style="stop-color:#FFFFFF"/>
		<stop  offset="1" style="stop-color:#000000"/>
	</linearGradient>
	<path class="st2" d="M7.3,1031.8h9.5c0.5,0,0.9,0.4,0.9,0.9v5.4c0,0.5-0.4,0.9-0.9,0.9H7.3c-0.5,0-0.9-0.4-0.9-0.9v-5.4
		C6.4,1032.2,6.8,1031.8,7.3,1031.8z"/>
</g>
</svg>
